<?xml version="1.0" encoding="iso-8859-1"?>
<!-- Uploaded to: SVG Repo, www.svgrepo.com, Generator: SVG Repo Mixer Tools -->
<svg height="800px" width="800px" version="1.1" id="Layer_1" xmlns="http://www.w3.org/2000/svg" xmlns:xlink="http://www.w3.org/1999/xlink" 
	 viewBox="0 0 512 512" xml:space="preserve">
<g>
	<polygon style="fill:#CAD3DB;" points="162.13,503.467 349.863,503.467 349.863,8.533 162.13,8.533 	"/>
	<g>
		<polygon style="fill:#E6EEF3;" points="25.597,494.933 162.13,494.933 162.13,153.6 25.597,153.6 		"/>
		<polygon style="fill:#E6EEF3;" points="349.863,494.933 486.397,494.933 486.397,153.6 349.863,153.6 		"/>
	</g>
	<polygon style="fill:#25B99A;" points="281.6,34.133 281.6,85.333 230.4,85.333 230.4,34.133 196.267,34.133 196.267,170.667 
		230.4,170.667 230.4,119.467 281.6,119.467 281.6,170.667 315.733,170.667 315.733,34.133 	"/>
	<g>
		<polygon style="fill:#8B9BC1;" points="59.73,221.867 127.997,221.867 127.997,187.733 59.73,187.733 		"/>
		<polygon style="fill:#8B9BC1;" points="213.33,238.933 298.663,238.933 298.663,204.8 213.33,204.8 		"/>
		<polygon style="fill:#8B9BC1;" points="213.33,307.2 298.663,307.2 298.663,273.067 213.33,273.067 		"/>
		<polygon style="fill:#8B9BC1;" points="213.33,375.467 298.663,375.467 298.663,341.333 213.33,341.333 		"/>
		<polygon style="fill:#8B9BC1;" points="59.73,290.133 127.997,290.133 127.997,256 59.73,256 		"/>
		<polygon style="fill:#8B9BC1;" points="59.73,358.4 127.997,358.4 127.997,324.267 59.73,324.267 		"/>
		<polygon style="fill:#8B9BC1;" points="59.73,426.667 127.997,426.667 127.997,392.533 59.73,392.533 		"/>
		<polygon style="fill:#8B9BC1;" points="383.997,221.867 452.263,221.867 452.263,187.733 383.997,187.733 		"/>
		<polygon style="fill:#8B9BC1;" points="383.997,290.133 452.263,290.133 452.263,256 383.997,256 		"/>
		<polygon style="fill:#8B9BC1;" points="383.997,358.4 452.263,358.4 452.263,324.267 383.997,324.267 		"/>
		<polygon style="fill:#8B9BC1;" points="383.997,426.667 452.263,426.667 452.263,392.533 383.997,392.533 		"/>
	</g>
	<polygon style="fill:#E6EEF3;" points="204.797,494.933 307.197,494.933 307.197,409.6 204.797,409.6 	"/>
	<polygon style="fill:#CAD3DB;" points="247.463,494.814 264.53,494.814 264.53,409.6 247.463,409.6 	"/>
	<path style="fill:#556080;" d="M503.467,503.467H8.533c-4.71,0-8.533-3.823-8.533-8.533s3.823-8.533,8.533-8.533h494.933
		c4.71,0,8.533,3.823,8.533,8.533S508.177,503.467,503.467,503.467"/>
</g>
</svg>